<svg class="svg-icon" style="width: 1em;height: 1em;vertical-align: middle;fill: currentColor;overflow: hidden;" viewBox="0 0 1024 1024" version="1.1" xmlns="http://www.w3.org/2000/svg"><path d="M847.872 240.128v688c0 26.56-21.408 48-48 48h-576c-26.56 0-48-21.44-48-48v-832c0-26.592 21.44-48 48-48h432z" fill="#E9EDED" /><path d="M160 768.128v160c0 35.456 28.544 64 64 64h576c35.456 0 64-28.544 64-64v-160H160z" fill="#F05542" /><path d="M847.872 240.128h-144c-26.56 0-48-21.44-48-48v-144" fill="#F05542" /><path d="M608 320.384c-30.528 0-54.24 4.256-72.96 12.864a84.544 84.544 0 0 0-40.096 37.248c-16.192 30.592-13.888 66.24-13.888 99.328 0 33.056-1.856 69.248-14.88 94.72-12.992 25.504-34.624 43.136-86.912 43.136v32c60.48 0 97.792-25.856 115.488-60.544 17.696-34.72 18.304-75.456 18.304-109.312l0.064-2.08H608v-32h-94.08c0.8-19.712 2.656-37.76 9.28-50.24 5.12-9.728 12.288-17.216 25.248-23.2 12.96-5.952 32.096-9.92 59.552-9.92v-32z" fill="#F05542" /><path d="M494.496 799.808a16 16 0 0 0-13.696 21.824l48 128a16 16 0 0 0 30.016 0l48-128a16 16 0 0 0-30.016-11.2l-32.96 88-33.024-88a16 16 0 0 0-14.72-10.624 16 16 0 0 0-1.6 0z m-94.88 0.128a16 16 0 0 0-15.744 16.256v127.616a16 16 0 0 0 0 0.192 16 16 0 0 0 0 0.64 16 16 0 0 0 0.064 0.736 16 16 0 0 0 0.064 0.448 16 16 0 0 0 10.048 13.056 16 16 0 0 0 0.512 0.192 16 16 0 0 0 4.448 0.864 16 16 0 0 0 1.12 0.064h63.616a16 16 0 1 0 0-32h-47.872v-111.808a16 16 0 0 0-16.256-16.256zM306.24 800c-27.616 0-50.368 22.752-50.368 50.368V944a16 16 0 1 0 32 0V896h32a16 16 0 1 0 0-32h-32v-13.632c0-10.432 7.936-18.368 18.368-18.368h29.632a16 16 0 1 0 0-32H306.24z" fill="#E9EDED" /></svg>