<svg class="svg-icon" style="width: 1em;height: 1em;vertical-align: middle;fill: currentColor;overflow: hidden;" viewBox="0 0 1024 1024" version="1.1" xmlns="http://www.w3.org/2000/svg"><path d="M847.872 240.128v688c0 26.56-21.408 48-48 48h-576c-26.56 0-48-21.44-48-48v-832c0-26.592 21.44-48 48-48h432z" fill="#E9EDED" /><path d="M160 768.128v160c0 35.456 28.544 64 64 64h576c35.456 0 64-28.544 64-64v-160H160z" fill="#25B39E" /><path d="M847.872 240.128h-144c-26.56 0-48-21.44-48-48v-144" fill="#25B39E" /><path d="M272 320a16 16 0 0 0-16 16v320a16 16 0 0 0 16 16h480a16 16 0 0 0 16-16v-320a16 16 0 0 0-16-16h-318.88a16 16 0 0 0-1.12 0h-160z m16 32h128v32H288v-32z m160 0h128v32h-128v-32z m160 0h128v32h-128v-32zM288 416h128v32H288v-32z m160 0h128v32h-128v-32z m160 0h128v32h-128v-32zM288 480h128v32H288v-32z m160 0h128v32h-128v-32z m160 0h128v32h-128v-32zM288 544h128v32H288v-32z m160 0h128v32h-128v-32z m160 0h128v32h-128v-32zM288 608h128v32H288v-32z m160 0h128v32h-128v-32z m160 0h128v32h-128v-32z" fill="#25B39E" /><path d="M431.616 799.936a16 16 0 0 0-15.744 16.256v127.616a16 16 0 0 0 0 0.192 16 16 0 0 0 0 0.64 16 16 0 0 0 0.064 0.736 16 16 0 0 0 0.064 0.448 16 16 0 0 0 10.048 13.056 16 16 0 0 0 0.512 0.192 16 16 0 0 0 4.448 0.864 16 16 0 0 0 1.12 0.064h63.616a16 16 0 1 0 0-32h-47.872v-111.808a16 16 0 0 0-16.256-16.256zM272.576 800a16 16 0 0 0-1.632 0.064 16 16 0 0 0-11.744 25.76l40.736 54.4-40.736 54.4a16 16 0 0 0 25.6 19.2l35.136-46.88 35.136 46.88a16 16 0 0 0 25.6-19.2l-40.736-54.4 40.736-54.4a16 16 0 0 0-13.792-25.76 16 16 0 0 0-11.84 6.56l-35.104 46.88L284.8 806.624A16 16 0 0 0 272.576 800z m317.92 0a16 16 0 0 0-1.984 0.384c-24.64 1.92-44.384 22.528-44.384 47.616 0 25.28 20.064 46.08 44.992 47.68a16 16 0 0 0 3.008 0.32h32c9.152 0 16 6.848 16 16 0 9.152-6.848 16-16 16h-64a16 16 0 1 0 0 32h64a16 16 0 0 0 3.296-0.384 48.096 48.096 0 0 0 44.704-47.616c0-25.152-19.84-45.856-44.576-47.68a16 16 0 0 0-3.424-0.32h-30.88a16 16 0 0 0-1.12 0 15.616 15.616 0 0 1-16-16c0-9.152 6.848-16 16-16h64a16 16 0 1 0 0-32h-62.88a16 16 0 0 0-1.12 0 16 16 0 0 0-1.6 0z" fill="#E9EDED" /></svg>